<svg width="16" height="16" viewBox="0 0 16 16" fill="none" xmlns="http://www.w3.org/2000/svg">
<g clip-path="url(#clip0)">
<path d="M1.4062 1.90625H14.5937C14.8102 1.90625 15.0128 1.95947 15.1962 2.04719L8.0312 9.21216L6.42529 7.66881C6.42529 7.66881 6.42517 7.66866 6.42514 7.66859C6.42511 7.66853 6.42498 7.66847 6.42498 7.66847L0.803513 2.04731C0.986887 1.95953 1.18967 1.90625 1.4062 1.90625Z" fill="#5B5B5B"/>
<path d="M0.140694 2.71021L5.43079 8.00002L0.140882 13.2899C0.0531626 13.1066 -5.62668e-05 12.9039 -5.62668e-05 12.6875V3.31246C-5.62668e-05 3.09611 0.0530376 2.89349 0.140694 2.71021Z" fill="#5B5B5B"/>
<path d="M15.8591 2.70996C15.9468 2.8933 16 3.09596 16 3.31243V12.6874C16 12.9038 15.9468 13.1065 15.8592 13.2897L10.5691 7.99993L15.8591 2.70996Z" fill="#5B5B5B"/>
<path d="M6.09366 8.6629L7.69979 10.2064C7.79135 10.298 7.91129 10.3438 8.03119 10.3438C8.1511 10.3438 8.27107 10.298 8.3626 10.2064L9.90622 8.66284L15.1964 13.9527C15.013 14.0405 14.8103 14.0937 14.5937 14.0937H1.40622C1.18975 14.0937 0.987097 14.0405 0.803753 13.9528L6.09366 8.6629Z" fill="#5B5B5B"/>
</g>
<defs>
<clipPath id="clip0">
<rect width="16" height="16" fill="white" transform="matrix(-1 0 0 1 16 0)"/>
</clipPath>
</defs>
</svg>
