<svg width="14" height="14" viewBox="0 0 14 14" fill="none" xmlns="http://www.w3.org/2000/svg">
<path d="M10.4995 0.00291293L8.684 0C6.64438 0 5.32629 1.35233 5.32629 3.44542V5.03399H3.50092C3.34319 5.03399 3.21545 5.16187 3.21545 5.3196V7.62126C3.21545 7.77899 3.34333 7.90672 3.50092 7.90672H5.32629V13.7145C5.32629 13.8723 5.45402 14 5.61175 14H7.99335C8.15108 14 8.27881 13.8721 8.27881 13.7145V7.90672H10.4131C10.5708 7.90672 10.6986 7.77899 10.6986 7.62126L10.6994 5.3196C10.6994 5.24386 10.6693 5.17133 10.6158 5.11773C10.5624 5.06414 10.4896 5.03399 10.4138 5.03399H8.27881V3.68734C8.27881 3.04008 8.43305 2.71151 9.27619 2.71151L10.4992 2.71107C10.6568 2.71107 10.7845 2.58319 10.7845 2.4256V0.288381C10.7845 0.130936 10.6569 0.00320423 10.4995 0.00291293Z" fill="white"/>
</svg>
