<svg width="12" height="16" viewBox="0 0 12 16" fill="none" xmlns="http://www.w3.org/2000/svg">
<path d="M11.2508 3.98224C11.1938 3.76879 11.0782 3.54135 10.9926 3.34222C9.96883 0.881776 7.73184 0 5.92559 0C3.50759 0 0.844444 1.62137 0.488892 4.96341V5.6462C0.488892 5.6747 0.498712 5.93067 0.512662 6.05871C0.711977 7.65144 1.96876 9.34416 2.90738 10.9369C3.91719 12.6433 4.96502 14.322 6.00315 16C6.64328 14.905 7.2811 13.7956 7.90664 12.7289C8.07713 12.4159 8.27503 12.103 8.4457 11.8042C8.55946 11.6053 8.77678 11.4064 8.87606 11.2212C9.88584 9.37247 11.5112 7.50941 11.5112 5.67466V4.92093C11.5112 4.72202 11.2647 4.02513 11.2508 3.98224ZM5.96986 7.40987C5.25909 7.40987 4.4811 7.05446 4.09709 6.07296C4.03988 5.91672 4.04449 5.60361 4.04449 5.57493V5.13404C4.04449 3.8828 5.1069 3.3138 6.03116 3.3138C7.16902 3.3138 8.04904 4.22414 8.04904 5.362C8.04904 6.49982 7.10771 7.40987 5.96986 7.40987Z" fill="#5B5B5B"/>
</svg>
