<svg width="14" height="12" viewBox="0 0 14 12" fill="none" xmlns="http://www.w3.org/2000/svg">
<path d="M14 1.65945C13.4847 1.88777 12.9318 2.04262 12.3509 2.11175C12.9441 1.75656 13.3981 1.19317 13.6133 0.523919C13.0569 0.85285 12.4428 1.0917 11.7884 1.22117C11.2644 0.662157 10.519 0.313965 9.69226 0.313965C8.10619 0.313965 6.82018 1.59997 6.82018 3.18518C6.82018 3.41 6.84554 3.62958 6.89454 3.83956C4.508 3.71969 2.39178 2.57629 0.975425 0.83885C0.72784 1.26228 0.586994 1.75567 0.586994 2.28234C0.586994 3.27878 1.0944 4.15799 1.86427 4.67238C1.3936 4.65664 0.950925 4.52716 0.563386 4.31195V4.34782C0.563386 5.7388 1.5537 6.8997 2.86682 7.16392C2.62624 7.22866 2.37254 7.26453 2.11009 7.26453C1.92463 7.26453 1.74529 7.24616 1.56944 7.21116C1.93511 8.35282 2.99543 9.18303 4.2517 9.20579C3.26925 9.97565 2.03048 10.4332 0.684994 10.4332C0.45317 10.4332 0.224824 10.4192 0 10.3938C1.27114 11.2101 2.78024 11.686 4.40218 11.686C9.6853 11.686 12.5731 7.31003 12.5731 3.515L12.5635 3.1432C13.1278 2.74075 13.6159 2.2351 14 1.65945Z" fill="white"/>
</svg>
