<svg width="14" height="14" viewBox="0 0 14 14" fill="none" xmlns="http://www.w3.org/2000/svg">
<g clip-path="url(#clip0)">
<path d="M7 4.11523C5.40936 4.11523 4.11523 5.40936 4.11523 7C4.11523 8.59064 5.40936 9.88477 7 9.88477C8.59064 9.88477 9.88477 8.59064 9.88477 7C9.88477 5.40936 8.59074 4.11523 7 4.11523Z" fill="white"/>
<path d="M12.5893 1.41066C11.6796 0.500946 10.4748 0 9.19669 0H4.80331C3.52521 0 2.32027 0.500946 1.41066 1.41066C0.500946 2.32027 0 3.52521 0 4.80331V9.19658C0 10.4748 0.500946 11.6797 1.41066 12.5893C2.32027 13.4991 3.52521 14 4.80331 14H9.19669C10.4748 14 11.6797 13.4991 12.5893 12.5893C13.4989 11.6797 14 10.4748 14 9.19658V4.80331C14 3.52521 13.4989 2.32027 12.5893 1.41066ZM7 10.7051C4.95702 10.7051 3.29492 9.04298 3.29492 7C3.29492 4.95702 4.95702 3.29492 7 3.29492C9.04298 3.29492 10.7051 4.95702 10.7051 7C10.7051 9.04298 9.04298 10.7051 7 10.7051ZM11.1046 3.47554C11.0283 3.5518 10.9224 3.5956 10.8146 3.5956C10.7066 3.5956 10.6009 3.5518 10.5247 3.47554C10.4481 3.39917 10.4044 3.29343 10.4044 3.18544C10.4044 3.07745 10.4481 2.9716 10.5247 2.89534C10.6009 2.81897 10.7065 2.77528 10.8146 2.77528C10.9224 2.77528 11.0283 2.81897 11.1046 2.89534C11.1809 2.9716 11.2247 3.07745 11.2247 3.18544C11.2247 3.29332 11.1809 3.39917 11.1046 3.47554Z" fill="white"/>
</g>
<defs>
<clipPath id="clip0">
<rect width="14" height="14" fill="white"/>
</clipPath>
</defs>
</svg>
